<?xml version="1.0" encoding="UTF-8"?>
<svg version="1.1" xmlns="http://www.w3.org/2000/svg" width="200" height="200">
<path d="M0 0 C66 0 132 0 200 0 C200 66 200 132 200 200 C134 200 68 200 0 200 C0 134 0 68 0 0 Z " fill="#FEFEFE" transform="translate(0,0)"/>
<path d="M0 0 C6.3870332 4.46484035 10.80149108 10.0466208 13.73828125 17.24609375 C16.8504679 24.66155083 21.6606102 29.77957746 29.00390625 33.0546875 C30.58625559 33.66354801 32.192339 34.20994633 33.80078125 34.74609375 C33.76936035 33.80926758 33.76936035 33.80926758 33.73730469 32.85351562 C33.65342281 29.98454315 33.60189614 27.11582967 33.55078125 24.24609375 C33.51726562 23.26382813 33.48375 22.2815625 33.44921875 21.26953125 C33.36371217 14.85653811 34.02481954 10.04736874 37.80078125 4.74609375 C39.8359375 2.6875 39.8359375 2.6875 41.86328125 1.30859375 C42.53488281 0.83550781 43.20648438 0.36242188 43.8984375 -0.125 C48.01308856 -2.56675392 52.1445949 -2.83391562 56.80078125 -2.25390625 C62.41938431 -0.55911451 66.71985617 1.57013962 69.80078125 6.74609375 C71.05078125 10.05859375 71.05078125 10.05859375 71.80078125 12.74609375 C72.46078125 12.74609375 73.12078125 12.74609375 73.80078125 12.74609375 C74.13078125 24.29609375 74.46078125 35.84609375 74.80078125 47.74609375 C78.43078125 47.74609375 82.06078125 47.74609375 85.80078125 47.74609375 C90.40651942 50.04896284 92.71899433 51.84072063 94.73828125 56.55859375 C96.67290546 62.96328134 96.44038442 68.79897687 93.83984375 74.984375 C92.05399834 78.01225576 89.92111445 79.24593356 86.80078125 80.74609375 C82.92578125 81.49609375 82.92578125 81.49609375 79.80078125 81.74609375 C80.13078125 82.40609375 80.46078125 83.06609375 80.80078125 83.74609375 C81.25190907 89.04684563 81.25190907 89.04684563 79.55078125 91.68359375 C77.80078125 92.74609375 77.80078125 92.74609375 75.67578125 92.49609375 C73.80078125 91.74609375 73.80078125 91.74609375 72.80078125 90.74609375 C67.08759204 89.46354107 63.28083564 90.11169156 57.80078125 91.74609375 C55.57542331 88.40805684 55.51099721 87.11789664 55.38671875 83.203125 C55.34804687 82.12998047 55.309375 81.05683594 55.26953125 79.95117188 C55.23859375 78.83162109 55.20765625 77.71207031 55.17578125 76.55859375 C55.13710937 75.42744141 55.0984375 74.29628906 55.05859375 73.13085938 C54.96425592 70.33610125 54.87866473 67.54135097 54.80078125 64.74609375 C52.82078125 64.74609375 50.84078125 64.74609375 48.80078125 64.74609375 C48.80078125 62.10609375 48.80078125 59.46609375 48.80078125 56.74609375 C50.45078125 56.41609375 52.10078125 56.08609375 53.80078125 55.74609375 C53.80078125 54.42609375 53.80078125 53.10609375 53.80078125 51.74609375 C49.84078125 53.72609375 49.84078125 53.72609375 45.80078125 55.74609375 C45.0919056 62.95720411 45.0919056 62.95720411 47.67578125 69.37109375 C49.73636286 70.75989769 49.73636286 70.75989769 51.80078125 71.74609375 C51.80078125 75.70609375 51.80078125 79.66609375 51.80078125 83.74609375 C45.07864782 82.13278173 39.95252618 80.04073524 36.140625 73.94140625 C32.86635036 67.85999825 33.2455139 61.93252616 33.48828125 55.18359375 C33.51083984 53.98412109 33.53339844 52.78464844 33.55664062 51.54882812 C33.61511816 48.61325572 33.69702376 45.68035567 33.80078125 42.74609375 C32.31578125 43.24109375 32.31578125 43.24109375 30.80078125 43.74609375 C16.68418477 44.73360795 7.09593661 42.56430282 -4.19921875 33.74609375 C-4.1835083 34.80521973 -4.16779785 35.8643457 -4.15161133 36.95556641 C-4.09711753 40.90275401 -4.06279829 44.84990864 -4.03442383 48.79736328 C-4.01938137 50.50249838 -3.99894222 52.20759507 -3.97290039 53.91259766 C-3.93631591 56.37021387 -3.91944702 58.82731644 -3.90625 61.28515625 C-3.89076614 62.04164459 -3.87528229 62.79813293 -3.85932922 63.57754517 C-3.85757264 69.16136096 -5.01073071 73.26616057 -8.8125 77.57421875 C-13.78424266 81.73448157 -17.85725358 84.03441546 -24.51171875 83.74609375 C-29.88991806 82.95571649 -34.37440925 80.6001561 -38.19921875 76.74609375 C-42.54787666 69.82848861 -42.78676588 64.05134529 -42.73046875 55.99609375 C-42.73429565 54.7834082 -42.73812256 53.57072266 -42.74206543 52.32128906 C-42.74477829 49.76626756 -42.73746124 47.21121799 -42.72070312 44.65625 C-42.69928681 40.75848118 -42.72052854 36.86255564 -42.74609375 32.96484375 C-42.74345037 30.47525637 -42.73832517 27.98567014 -42.73046875 25.49609375 C-42.73856567 24.33754883 -42.7466626 23.17900391 -42.75500488 21.98535156 C-42.65950309 13.69347711 -41.44843 8.23305216 -35.63671875 1.99609375 C-25.00681573 -5.92264714 -11.40123737 -6.50052788 0 0 Z " fill="#26ACF5" transform="translate(73.19921875,59.25390625)"/>
<path d="M0 0 C5.90819539 1.67213077 11.39310378 4.03825472 15.3125 8.9375 C15.3125 9.5975 15.3125 10.2575 15.3125 10.9375 C15.9725 10.9375 16.6325 10.9375 17.3125 10.9375 C20.59330442 15.14103067 22.0917482 18.85103417 23.3125 23.9375 C23.9725 23.9375 24.6325 23.9375 25.3125 23.9375 C25.3125 25.5875 25.3125 27.2375 25.3125 28.9375 C25.9725 28.9375 26.6325 28.9375 27.3125 28.9375 C28.89823616 32.10897233 28.4966475 35.53176943 28.515625 39.015625 C28.52132507 39.81981873 28.52702515 40.62401245 28.53289795 41.45257568 C28.54235301 43.15733524 28.54888394 44.86211311 28.55273438 46.56689453 C28.56241025 49.16341544 28.59341563 51.7591347 28.625 54.35546875 C28.63153319 56.01301614 28.63678242 57.67056919 28.640625 59.328125 C28.6529718 60.10021301 28.6653186 60.87230103 28.67803955 61.66778564 C28.65505613 67.28792627 27.52840801 71.42649528 23.69921875 75.765625 C18.72747609 79.92588782 14.65446517 82.22582171 8 81.9375 C2.62180069 81.14712274 -1.8626905 78.79156235 -5.6875 74.9375 C-10.03615791 68.01989486 -10.27504713 62.24275154 -10.21875 54.1875 C-10.2225769 52.97481445 -10.22640381 51.76212891 -10.23034668 50.51269531 C-10.23305954 47.95767381 -10.22574249 45.40262424 -10.20898438 42.84765625 C-10.18756806 38.94988743 -10.20880979 35.05396189 -10.234375 31.15625 C-10.23173162 28.66666262 -10.22660642 26.17707639 -10.21875 23.6875 C-10.22684692 22.52895508 -10.23494385 21.37041016 -10.24328613 20.17675781 C-10.15661725 12.65179407 -9.18928081 7.0341318 -4.2208252 1.22167969 C-2.6875 -0.0625 -2.6875 -0.0625 0 0 Z " fill="#248FF5" transform="translate(40.6875,61.0625)"/>
<path d="M0 0 C0.66 0 1.32 0 2 0 C2.33 11.55 2.66 23.1 3 35 C6.63 35 10.26 35 14 35 C18.60573817 37.30286909 20.91821308 39.09462688 22.9375 43.8125 C24.87212421 50.21718759 24.63960317 56.05288312 22.0390625 62.23828125 C20.25321709 65.26616201 18.1203332 66.49983981 15 68 C11.125 68.75 11.125 68.75 8 69 C8.33 69.66 8.66 70.32 9 71 C9.45112782 76.30075188 9.45112782 76.30075188 7.75 78.9375 C6 80 6 80 3.875 79.75 C2 79 2 79 1 78 C-4.71318921 76.71744732 -8.51994561 77.36559781 -14 79 C-16.22535794 75.66196309 -16.28978404 74.37180289 -16.4140625 70.45703125 C-16.45273438 69.38388672 -16.49140625 68.31074219 -16.53125 67.20507812 C-16.5621875 66.08552734 -16.593125 64.96597656 -16.625 63.8125 C-16.66367188 62.68134766 -16.70234375 61.55019531 -16.7421875 60.38476562 C-16.83652533 57.5900075 -16.92211652 54.79525722 -17 52 C-18.98 52 -20.96 52 -23 52 C-23 49.36 -23 46.72 -23 44 C-20.525 43.505 -20.525 43.505 -18 43 C-18 41.68 -18 40.36 -18 39 C-20.31 39.66 -22.62 40.32 -25 41 C-24 39 -24 39 -21 38 C-19.3553326 35.53673288 -19.3553326 35.53673288 -18 33 C-17 32 -17 32 -14.19921875 31.8671875 C-12.46091797 31.87105469 -12.46091797 31.87105469 -10.6875 31.875 C-9.53636719 31.87242188 -8.38523438 31.86984375 -7.19921875 31.8671875 C-4 32 -4 32 0 33 C0 22.11 0 11.22 0 0 Z " fill="#E0F3FE" transform="translate(145,72)"/>
<path d="M0 0 C3.3 0 6.6 0 10 0 C10.18451025 15.74487472 10.18451025 15.74487472 9 23 C8.34 23 7.68 23 7 23 C6.773125 23.70125 6.54625 24.4025 6.3125 25.125 C4.68343133 28.69343613 2.59359269 31.06514511 0 34 C2.62746062 33.49471911 4.57996678 32.71001661 7 31.5 C10 30 10 30 12.25 29.625 C12.8275 29.41875 13.405 29.2125 14 29 C15.03973184 26.86673164 15.03973184 26.86673164 16 24 C17.25482548 21.73639324 18.55831382 19.50705563 19.87890625 17.28125 C21.07332294 14.85079932 21.58231567 12.6656708 22 10 C22.66 10.33 23.32 10.66 24 11 C24 22.55 24 34.1 24 46 C18.39 46 12.78 46 7 46 C5.68 47.98 4.36 49.96 3 52 C1.515 52.495 1.515 52.495 0 53 C-2.95791214 57.43686821 -2.65561752 61.79408467 -2 67 C-0.1031157 69.65563802 1.14485055 70.57242527 4 72 C4 75.96 4 79.92 4 84 C-2.55180541 82.4275667 -7.2614902 80.60933659 -11.16015625 74.7578125 C-14.08476217 68.65639585 -13.42471447 62.11227069 -13.25 55.5 C-13.23195313 54.200625 -13.21390625 52.90125 -13.1953125 51.5625 C-13.14842615 48.37422849 -13.08280893 45.187507 -13 42 C-14.65 41.67 -16.3 41.34 -18 41 C-17.34 39.68 -16.68 38.36 -16 37 C-15.67 37.66 -15.34 38.32 -15 39 C-14.34 39 -13.68 39 -13 39 C-12.98541748 38.20303711 -12.97083496 37.40607422 -12.95581055 36.58496094 C-12.88132525 32.97281876 -12.78466488 29.36160026 -12.6875 25.75 C-12.65366211 23.86861328 -12.65366211 23.86861328 -12.61914062 21.94921875 C-12.58369141 20.74394531 -12.54824219 19.53867188 -12.51171875 18.296875 C-12.48553467 17.18666992 -12.45935059 16.07646484 -12.43237305 14.93261719 C-11.95541054 11.69756713 -11.11727804 10.42374812 -9 8 C-8.3503125 6.6696875 -8.3503125 6.6696875 -7.6875 5.3125 C-6 3 -6 3 -2.8125 2.1875 C-1.4203125 2.0946875 -1.4203125 2.0946875 0 2 C0 1.34 0 0.68 0 0 Z " fill="#2590F3" transform="translate(121,59)"/>
<path d="M0 0 C4.20809931 4.10546274 5.66227354 8.6743732 5.9375 14.5 C5.66227354 20.3256268 4.20809931 24.89453726 0 29 C-5.49778377 31.39903292 -10.66875609 31.19218598 -16.4375 29.75 C-18.78284325 28.28416047 -19.49546011 27.0691997 -20.4375 24.5 C-19.7775 24.83 -19.1175 25.16 -18.4375 25.5 C-16.80889517 25.43757961 -15.18256544 25.30287069 -13.5625 25.125 C-12.69882813 25.03476563 -11.83515625 24.94453125 -10.9453125 24.8515625 C-8.71389355 24.53874676 -6.60807242 24.09564546 -4.4375 23.5 C-3.25772724 18.78090894 -2.08750308 12.89999453 -4.5625 8.5 C-7.88187262 6.72966794 -11.14655307 7.14140363 -14.6875 8.125 C-15.265 8.24875 -15.8425 8.3725 -16.4375 8.5 C-17.0975 7.84 -17.7575 7.18 -18.4375 6.5 C-18.0625 2.875 -18.0625 2.875 -17.4375 -0.5 C-11.49752156 -2.18345011 -5.70395396 -2.48899809 0 0 Z " fill="#28A9F3" transform="translate(163.4375,109.5)"/>
<path d="M0 0 C2.64 0 5.28 0 8 0 C8 13.2 8 26.4 8 40 C5.36 40 2.72 40 0 40 C-0.33 32.08 -0.66 24.16 -1 16 C-2.98 16 -4.96 16 -7 16 C-7 13.36 -7 10.72 -7 8 C-6.21625 7.79375 -5.4325 7.5875 -4.625 7.375 C-1.69083714 6.19323388 -1.69083714 6.19323388 -0.6875 2.875 C-0.460625 1.92625 -0.23375 0.9775 0 0 Z " fill="#2AA0EA" transform="translate(129,108)"/>
<path d="M0 0 C1.15392455 2.3078491 1.53437166 4.47230331 2 7 C2.67546875 6.88140625 3.3509375 6.7628125 4.046875 6.640625 C11.26506264 5.5975343 11.26506264 5.5975343 14.625 7.4375 C17.01102328 11.88417974 16.347079 16.04768062 15.5 20.8125 C13.14694875 24.24403308 9.95005505 25.06581566 6 26 C2.46900433 26.26649024 0.35670197 26.11890066 -3 25 C-6.57644614 19.98337421 -5.57353372 12.82305409 -5 7 C-3.84470616 4.03596559 -2.25017473 2.25017473 0 0 Z " fill="#35A8EB" transform="translate(145,110)"/>
<path d="M0 0 C2.00543252 1.18269097 3.42082063 2.4508798 4.98046875 4.16796875 C4.32046875 5.48796875 3.66046875 6.80796875 2.98046875 8.16796875 C2.67109375 7.02328125 2.67109375 7.02328125 2.35546875 5.85546875 C0.45503104 2.14097685 -1.07876067 1.50501591 -5.01953125 0.16796875 C-8.38249514 -0.16213814 -11.6668435 -0.29634232 -15.01953125 0.16796875 C-15.67953125 0.82796875 -16.33953125 1.48796875 -17.01953125 2.16796875 C-18.16421875 2.22984375 -18.16421875 2.22984375 -19.33203125 2.29296875 C-23.0299692 3.49694855 -23.9974928 5.34292856 -25.9519043 8.60986328 C-28.01770823 13.55966745 -27.76342052 18.75108075 -27.76953125 24.04296875 C-27.80258196 26.29041728 -27.83887059 28.5378213 -27.87890625 30.78515625 C-27.88374023 31.77112793 -27.88857422 32.75709961 -27.89355469 33.77294922 C-28.01953125 36.16796875 -28.01953125 36.16796875 -29.01953125 38.16796875 C-30.00953125 37.83796875 -30.99953125 37.50796875 -32.01953125 37.16796875 C-32.34953125 37.82796875 -32.67953125 38.48796875 -33.01953125 39.16796875 C-31.03953125 39.49796875 -29.05953125 39.82796875 -27.01953125 40.16796875 C-28.00953125 40.66296875 -28.00953125 40.66296875 -29.01953125 41.16796875 C-29.01953125 50.07796875 -29.01953125 58.98796875 -29.01953125 68.16796875 C-29.34953125 68.16796875 -29.67953125 68.16796875 -30.01953125 68.16796875 C-30.01953125 59.58796875 -30.01953125 51.00796875 -30.01953125 42.16796875 C-31.50453125 42.66296875 -31.50453125 42.66296875 -33.01953125 43.16796875 C-42.50647285 43.83161948 -51.43786061 43.85886367 -60.01953125 39.16796875 C-61.8125 37.53125 -61.8125 37.53125 -63.01953125 36.16796875 C-61.03953125 36.49796875 -59.05953125 36.82796875 -57.01953125 37.16796875 C-57.01953125 37.82796875 -57.01953125 38.48796875 -57.01953125 39.16796875 C-53.39861576 39.99899853 -50.04482573 40.30309916 -46.33203125 40.29296875 C-45.37941406 40.29554687 -44.42679688 40.298125 -43.4453125 40.30078125 C-41.00956627 40.32867284 -41.00956627 40.32867284 -39.01953125 39.16796875 C-39.01953125 38.17796875 -39.01953125 37.18796875 -39.01953125 36.16796875 C-38.02953125 35.67296875 -38.02953125 35.67296875 -37.01953125 35.16796875 C-39.54909653 32.07627785 -42.24407737 31.25865543 -46.01953125 30.16796875 C-46.34953125 28.18796875 -46.67953125 26.20796875 -47.01953125 24.16796875 C-46.54644531 24.5546875 -46.07335937 24.94140625 -45.5859375 25.33984375 C-44.92464844 25.860625 -44.26335937 26.38140625 -43.58203125 26.91796875 C-42.94394531 27.4284375 -42.30585937 27.93890625 -41.6484375 28.46484375 C-37.97730353 30.84317126 -34.04346953 32.47516577 -30.01953125 34.16796875 C-30.04047852 33.54341797 -30.06142578 32.91886719 -30.08300781 32.27539062 C-30.16688969 29.40641815 -30.21841636 26.53770467 -30.26953125 23.66796875 C-30.31980469 22.19457031 -30.31980469 22.19457031 -30.37109375 20.69140625 C-30.45660033 14.27841311 -29.79549296 9.46924374 -26.01953125 4.16796875 C-23.984375 2.109375 -23.984375 2.109375 -21.95703125 0.73046875 C-20.94962891 0.02083984 -20.94962891 0.02083984 -19.921875 -0.703125 C-13.13011117 -4.73355569 -6.68572574 -3.0884503 0 0 Z " fill="#53B5EC" transform="translate(137.01953125,59.83203125)"/>
<path d="M0 0 C-0.33 0.99 -0.66 1.98 -1 3 C-1.77941205 10.21166739 -1.77941205 10.21166739 0.875 16.625 C2.93558161 18.01380394 2.93558161 18.01380394 5 19 C5 22.96 5 26.92 5 31 C-1.05125763 29.54769817 -5.81789252 27.69126589 -9.875 22.6875 C-11.28208751 19.32612427 -11.21221495 16.60765422 -11 13 C-10.34 12.67 -9.68 12.34 -9 12 C-7.04144701 9.2881574 -6 7.69862083 -6 4.3125 C-6 3.549375 -6 2.78625 -6 2 C-3 0 -3 0 0 0 Z " fill="#2F9DEF" transform="translate(120,112)"/>
<path d="M0 0 C0.33 0 0.66 0 1 0 C1.03867188 1.19496094 1.03867188 1.19496094 1.078125 2.4140625 C1.48053139 11.02203774 1.48053139 11.02203774 6 18 C9.77136956 20.14050705 13.72887907 20.49751518 18 21 C16.68 21.33 15.36 21.66 14 22 C14.33 22.66 14.66 23.32 15 24 C15.45112782 29.30075188 15.45112782 29.30075188 13.75 31.9375 C12 33 12 33 9.875 32.75 C8 32 8 32 7 31 C1.28681079 29.71744732 -2.51994561 30.36559781 -8 32 C-8.33 31.01 -8.66 30.02 -9 29 C-6.36 29 -3.72 29 -1 29 C-1.01160156 27.82824219 -1.02320313 26.65648437 -1.03515625 25.44921875 C-1.09334261 16.90855219 -1.04758294 8.49290452 0 0 Z " fill="#ECF6FB" transform="translate(139,119)"/>
<path d="M0 0 C3.1875 0.3125 3.1875 0.3125 5.5625 1.8125 C7.84166433 5.31890667 8.00503559 8.24150647 7.1875 12.3125 C5.5625 14.8125 5.5625 14.8125 3.1875 16.3125 C0.04295467 16.76172076 -1.85661529 16.87284621 -4.625 15.25 C-6.45335164 12.26689996 -6.69275472 9.78511317 -6.8125 6.3125 C-4.00637755 0.44515306 -4.00637755 0.44515306 0 0 Z " fill="#E8F7FD" transform="translate(153.8125,115.6875)"/>
<path d="M0 0 C2.64 0 5.28 0 8 0 C8.45452339 5.68154235 7.66636232 8.60036521 4 13 C3.01 13.33 2.02 13.66 1 14 C1 22.58 1 31.16 1 40 C0.67 40 0.34 40 0 40 C-0.33 32.08 -0.66 24.16 -1 16 C-2.98 16 -4.96 16 -7 16 C-7 13.36 -7 10.72 -7 8 C-6.21625 7.79375 -5.4325 7.5875 -4.625 7.375 C-1.69083714 6.19323388 -1.69083714 6.19323388 -0.6875 2.875 C-0.460625 1.92625 -0.23375 0.9775 0 0 Z " fill="#49B0EE" transform="translate(129,108)"/>
<path d="M0 0 C0.33 0 0.66 0 1 0 C1.01839432 0.70299728 1.03678864 1.40599457 1.05574036 2.1302948 C1.2319036 8.76617883 1.42175652 15.4015147 1.62686634 22.03657055 C1.73182802 25.44748017 1.83155241 28.85837319 1.91918945 32.26977539 C2.02025078 36.19470006 2.14430504 40.11873776 2.26953125 44.04296875 C2.29779495 45.26396774 2.32605865 46.48496674 2.35517883 47.7429657 C2.39499374 48.8837709 2.43480865 50.02457611 2.47583008 51.19995117 C2.50469803 52.20144699 2.53356598 53.20294281 2.56330872 54.23478699 C3.06484341 57.41060095 4.26554384 59.32545226 6 62 C6 62.66 6 63.32 6 64 C7.9914056 64.38133299 9.99279077 64.71325582 12 65 C12.495 64.505 12.495 64.505 13 64 C14.51928038 63.92820036 16.04167482 63.91607993 17.5625 63.9375 C18.38878906 63.94652344 19.21507813 63.95554688 20.06640625 63.96484375 C20.70449219 63.97644531 21.34257813 63.98804688 22 64 C20.68 65.65 19.36 67.3 18 69 C20.31 69 22.62 69 25 69 C21.3000082 71.4666612 19.73444234 71.26390128 15.48046875 70.66015625 C9.42505117 69.04855692 5.23314229 65.94311162 1.89672852 60.68579102 C-0.87341153 54.96343995 -0.4994031 49.20529021 -0.390625 42.96875 C-0.38496521 41.73709106 -0.37930542 40.50543213 -0.37347412 39.2364502 C-0.35118231 35.3238956 -0.30099621 31.41227526 -0.25 27.5 C-0.2276594 24.83855507 -0.21167683 22.17711891 -0.1953125 19.515625 C-0.15134088 13.01010087 -0.08449946 6.50511721 0 0 Z " fill="#4FA2E4" transform="translate(31,72)"/>
<path d="M0 0 C1.32 0 2.64 0 4 0 C4.18451025 15.74487472 4.18451025 15.74487472 3 23 C2.34 23 1.68 23 1 23 C0.71125 23.763125 0.4225 24.52625 0.125 25.3125 C-1 28 -1 28 -3 31 C-3.66 30.67 -4.32 30.34 -5 30 C-5.04241723 27.66705225 -5.04092937 25.33297433 -5 23 C-4.67 22.67 -4.34 22.34 -4 22 C-3.76277062 18.6336022 -3.60391333 15.27447239 -3.48242188 11.90234375 C-3.30045482 8.13253568 -3.13757139 6.20635708 -1 3 C-0.67 2.01 -0.34 1.02 0 0 Z " fill="#2178F4" transform="translate(127,59)"/>
<path d="M0 0 C2.375 2.3125 2.375 2.3125 4 5 C4 5.99 4 6.98 4 8 C3.32453125 7.98839844 2.6490625 7.97679688 1.953125 7.96484375 C1.06109375 7.95582031 0.1690625 7.94679688 -0.75 7.9375 C-1.63171875 7.92589844 -2.5134375 7.91429688 -3.421875 7.90234375 C-5.96810281 7.89642179 -5.96810281 7.89642179 -8.203125 8.62890625 C-8.79609375 8.75136719 -9.3890625 8.87382813 -10 9 C-10.66 8.34 -11.32 7.68 -12 7 C-11.625 3.875 -11.625 3.875 -11 1 C-7.25056607 0.11778025 -3.83992558 -0.49020326 0 0 Z " fill="#2473E8" transform="translate(157,109)"/>
<path d="M0 0 C2.00543252 1.18269097 3.42082063 2.4508798 4.98046875 4.16796875 C4.32046875 5.48796875 3.66046875 6.80796875 2.98046875 8.16796875 C2.77421875 7.40484375 2.56796875 6.64171875 2.35546875 5.85546875 C0.45503104 2.14097685 -1.07876067 1.50501591 -5.01953125 0.16796875 C-8.38249514 -0.16213814 -11.6668435 -0.29634232 -15.01953125 0.16796875 C-15.67953125 0.82796875 -16.33953125 1.48796875 -17.01953125 2.16796875 C-17.78265625 2.20921875 -18.54578125 2.25046875 -19.33203125 2.29296875 C-23.03875365 3.4998086 -23.9903815 5.39233766 -25.94750977 8.66357422 C-27.94862618 13.33846655 -27.80376583 18.14928638 -27.83203125 23.16796875 C-27.85716797 24.22886719 -27.88230469 25.28976563 -27.90820312 26.3828125 C-27.96665866 28.9782383 -28.00324253 31.57199378 -28.01953125 34.16796875 C-28.34953125 34.16796875 -28.67953125 34.16796875 -29.01953125 34.16796875 C-29.13646626 30.31406058 -29.20702745 26.46061363 -29.26953125 22.60546875 C-29.31980469 20.97641602 -29.31980469 20.97641602 -29.37109375 19.31445312 C-29.45195599 12.66353412 -29.08992863 8.52072141 -25.01953125 3.16796875 C-23.203125 1.42578125 -23.203125 1.42578125 -21.45703125 0.29296875 C-20.87824219 -0.09632812 -20.29945312 -0.485625 -19.703125 -0.88671875 C-12.92592613 -4.69201371 -6.5917013 -3.045016 0 0 Z " fill="#3F99DE" transform="translate(137.01953125,59.83203125)"/>
<path d="M0 0 C1.79244141 0.01740234 1.79244141 0.01740234 3.62109375 0.03515625 C5.41740234 0.04869141 5.41740234 0.04869141 7.25 0.0625 C8.17683594 0.07410156 9.10367188 0.08570312 10.05859375 0.09765625 C10.05859375 0.42765625 10.05859375 0.75765625 10.05859375 1.09765625 C6.75859375 1.09765625 3.45859375 1.09765625 0.05859375 1.09765625 C0.05859375 1.75765625 0.05859375 2.41765625 0.05859375 3.09765625 C2.36859375 3.09765625 4.67859375 3.09765625 7.05859375 3.09765625 C7.05859375 16.62765625 7.05859375 30.15765625 7.05859375 44.09765625 C6.72859375 44.09765625 6.39859375 44.09765625 6.05859375 44.09765625 C6.05859375 30.89765625 6.05859375 17.69765625 6.05859375 4.09765625 C3.41859375 4.09765625 0.77859375 4.09765625 -1.94140625 4.09765625 C-2.27140625 6.07765625 -2.60140625 8.05765625 -2.94140625 10.09765625 C-3.27140625 9.10765625 -3.60140625 8.11765625 -3.94140625 7.09765625 C-6.25140625 7.75765625 -8.56140625 8.41765625 -10.94140625 9.09765625 C-9.94140625 7.09765625 -9.94140625 7.09765625 -6.94140625 6.09765625 C-5.29673885 3.63438913 -5.29673885 3.63438913 -3.94140625 1.09765625 C-2.94140625 0.09765625 -2.94140625 0.09765625 0 0 Z " fill="#C2EBFE" transform="translate(130.94140625,103.90234375)"/>
<path d="M0 0 C1.32 0.33 2.64 0.66 4 1 C4 2.65 4 4.3 4 6 C3.34 6 2.68 6 2 6 C1.67 6.99 1.34 7.98 1 9 C-10.17506436 9.39058477 -10.17506436 9.39058477 -14 7 C-15.3125 4.875 -15.3125 4.875 -16 3 C-15.01 3.495 -15.01 3.495 -14 4 C-12.37139517 3.93757961 -10.74506544 3.80287069 -9.125 3.625 C-7.82949219 3.48964844 -7.82949219 3.48964844 -6.5078125 3.3515625 C-4.27639355 3.03874676 -2.17057242 2.59564546 0 2 C0 1.34 0 0.68 0 0 Z " fill="#2664E1" transform="translate(159,131)"/>
<path d="M0 0 C2.97 0.33 5.94 0.66 9 1 C7.68 1.33 6.36 1.66 5 2 C5.33 2.66 5.66 3.32 6 4 C6.45112782 9.30075188 6.45112782 9.30075188 4.75 11.9375 C3 13 3 13 0.8125 12.6875 C0.214375 12.460625 -0.38375 12.23375 -1 12 C-0.67 11.01 -0.34 10.02 0 9 C-1.98 9 -3.96 9 -6 9 C-5.67 7.35 -5.34 5.7 -5 4 C-3.35 4 -1.7 4 0 4 C0 2.68 0 1.36 0 0 Z " fill="#B6C4D6" transform="translate(148,139)"/>
<path d="M0 0 C0 1.32 0 2.64 0 4 C-1.65 4.33 -3.3 4.66 -5 5 C-5 7.64 -5 10.28 -5 13 C-1.535 12.505 -1.535 12.505 2 12 C2 12.66 2 13.32 2 14 C0.02 14.33 -1.96 14.66 -4 15 C-4 16.32 -4 17.64 -4 19 C-7.875 17.25 -7.875 17.25 -9 15 C-9.17252544 13.19272528 -9.26670538 11.37741317 -9.3125 9.5625 C-9.34988281 8.59441406 -9.38726562 7.62632813 -9.42578125 6.62890625 C-9 4 -9 4 -7.16796875 2.21484375 C-4.76143662 0.86631854 -2.78665184 0 0 0 Z " fill="#EAFBFE" transform="translate(127,111)"/>
<path d="M0 0 C0.66 0.33 1.32 0.66 2 1 C2 12.55 2 24.1 2 36 C1.01 36 0.02 36 -1 36 C-1 35.34 -1 34.68 -1 34 C-0.34 34 0.32 34 1 34 C0.67 27.07 0.34 20.14 0 13 C-1.98 13.99 -1.98 13.99 -4 15 C-2.9318153 9.88634986 -1.76892524 4.92772031 0 0 Z " fill="#2976DB" transform="translate(143,69)"/>
<path d="M0 0 C0 0.66 0 1.32 0 2 C0.515625 2.45375 1.03125 2.9075 1.5625 3.375 C2.036875 3.91125 2.51125 4.4475 3 5 C2.67 6.32 2.34 7.64 2 9 C-1.96 9 -5.92 9 -10 9 C-10 7.35 -10 5.7 -10 4 C-8.71086513 3.32845067 -7.41859796 2.66291141 -6.125 2 C-5.40570313 1.62875 -4.68640625 1.2575 -3.9453125 0.875 C-2 0 -2 0 0 0 Z " fill="#BCC4D5" transform="translate(167,139)"/>
<path d="M0 0 C1.98 0.99 1.98 0.99 4 2 C3.67 2.66 3.34 3.32 3 4 C2.84479443 6.32273159 2.74980833 8.64959313 2.68359375 10.9765625 C2.66281265 11.66181 2.64203156 12.3470575 2.62062073 13.05307007 C2.55519815 15.24361069 2.49627446 17.43427189 2.4375 19.625 C2.39430782 21.1093875 2.3506933 22.59376278 2.30664062 24.078125 C2.19952447 27.71862084 2.09823638 31.35925251 2 35 C1.34 35 0.68 35 0 35 C0 23.45 0 11.9 0 0 Z " fill="#CAF1FE" transform="translate(69,93)"/>
<path d="M0 0 C3.125 0.375 3.125 0.375 6 1 C5.360625 1.433125 4.72125 1.86625 4.0625 2.3125 C1.73253997 3.91239177 1.73253997 3.91239177 1 7 C0.17113281 7.46921875 -0.65773438 7.9384375 -1.51171875 8.421875 C-5.57970304 12.63674098 -4.78307816 17.61408329 -4.8125 23.25 C-4.83763672 24.37664062 -4.86277344 25.50328125 -4.88867188 26.6640625 C-4.94754892 29.44305908 -4.98382525 32.22048033 -5 35 C-5.33 35 -5.66 35 -6 35 C-6.11651725 30.62522526 -6.18736 26.25085173 -6.25 21.875 C-6.28351562 20.6375 -6.31703125 19.4 -6.3515625 18.125 C-6.47346291 6.78826215 -6.47346291 6.78826215 -2 2 C-1.34 1.34 -0.68 0.68 0 0 Z " fill="#2777D5" transform="translate(38,61)"/>
<path d="M0 0 C0.33 0 0.66 0 1 0 C1.04936158 5.09031755 1.08570105 10.18049643 1.10986328 15.27099609 C1.11993376 17.00344265 1.13359089 18.73587216 1.15087891 20.46826172 C1.17508162 22.95544639 1.18647239 25.44240675 1.1953125 27.9296875 C1.20563507 28.70682098 1.21595764 29.48395447 1.22659302 30.28463745 C1.22699271 32.19125493 1.1223214 34.09731036 1 36 C0.34 36.66 -0.32 37.32 -1 38 C-1.93234415 30.09372161 -2.01927224 22.44458573 -1.625 14.5 C-1.58117187 13.43007812 -1.53734375 12.36015625 -1.4921875 11.2578125 C-1.13632015 3.40896046 -1.13632015 3.40896046 0 0 Z " fill="#3291DE" transform="translate(68,93)"/>
<path d="M0 0 C0.33 0 0.66 0 1 0 C0.67 5.28 0.34 10.56 0 16 C-0.33 15.01 -0.66 14.02 -1 13 C-2.65 13 -4.3 13 -6 13 C-6.3125 10.3125 -6.3125 10.3125 -6 7 C-3.5625 4.25 -3.5625 4.25 -1 2 C-0.67 1.34 -0.34 0.68 0 0 Z " fill="#2680F0" transform="translate(136,115)"/>
<path d="M0 0 C2.64 0 5.28 0 8 0 C8 2.31 8 4.62 8 7 C5.21176345 8.0326802 4.1322726 8.04509293 1.25 7.0625 C0.5075 6.711875 -0.235 6.36125 -1 6 C-0.67 4.02 -0.34 2.04 0 0 Z " fill="#35AAE9" transform="translate(129,108)"/>
<path d="M0 0 C1.65 0 3.3 0 5 0 C5 0.66 5 1.32 5 2 C7.64 2.33 10.28 2.66 13 3 C12.67 3.66 12.34 4.32 12 5 C9.78515625 5.484375 9.78515625 5.484375 7.0625 5.75 C5.71865234 5.89695313 5.71865234 5.89695313 4.34765625 6.046875 C2 6 2 6 0 4 C0 2.68 0 1.36 0 0 Z " fill="#2DA3FB" transform="translate(143,130)"/>
<path d="M0 0 C0.33 0 0.66 0 1 0 C1 5.61 1 11.22 1 17 C-4.6066542 16.06555763 -6.63091498 15.22480085 -11 12 C-9 11 -9 11 -6.8359375 11.55859375 C-4.55729167 12.37239583 -2.27864583 13.18619792 0 14 C0 9.38 0 4.76 0 0 Z " fill="#DDF9FE" transform="translate(106,77)"/>
<path d="M0 0 C1.32 0.33 2.64 0.66 4 1 C4 2.65 4 4.3 4 6 C2.35 6.33 0.7 6.66 -1 7 C-1 6.34 -1 5.68 -1 5 C-3.31 5 -5.62 5 -8 5 C-5.36095629 3.58622659 -2.92879371 2.62759865 0 2 C0 1.34 0 0.68 0 0 Z " fill="#2088F3" transform="translate(159,131)"/>
<path d="M0 0 C3.14737182 0.69941596 6.02588876 1.76078698 9 3 C6.42910583 5.11180592 4.36939433 6.66306057 1 7 C0.34 6.34 -0.32 5.68 -1 5 C-0.625 2.375 -0.625 2.375 0 0 Z " fill="#288BF4" transform="translate(146,111)"/>
<path d="M0 0 C2.60008025 4.68221622 2.67266925 9.05181682 1.5 14.19140625 C0.29964176 17.89478424 -0.49518394 19.62432293 -3.6875 22 C-4.450625 22.33 -5.21375 22.66 -6 23 C-6 22.34 -6 21.68 -6 21 C-5.34 21 -4.68 21 -4 21 C-3.690625 20.38125 -3.38125 19.7625 -3.0625 19.125 C-2.375 17.75 -1.6875 16.375 -1 15 C-0.76827173 12.45384991 -0.58105471 9.92603775 -0.4375 7.375 C-0.37272461 6.31539063 -0.37272461 6.31539063 -0.30664062 5.234375 C-0.20055249 3.48981463 -0.09977111 1.74493303 0 0 Z " fill="#4D9FD9" transform="translate(167,116)"/>
<path d="M0 0 C2.31 0.33 4.62 0.66 7 1 C7 1.66 7 2.32 7 3 C3.93753253 4.78409802 1.77920727 5.22880021 -1.75 5.125 C-2.54921875 5.10695313 -3.3484375 5.08890625 -4.171875 5.0703125 C-4.77515625 5.04710938 -5.3784375 5.02390625 -6 5 C-5.34 3.68 -4.68 2.36 -4 1 C-3.67 1.66 -3.34 2.32 -3 3 C-2.34 3 -1.68 3 -1 3 C-0.67 2.01 -0.34 1.02 0 0 Z " fill="#26ACF8" transform="translate(109,95)"/>
<path d="M0 0 C0.33 0 0.66 0 1 0 C1.05402274 2.10388569 1.09280256 4.20816714 1.125 6.3125 C1.14820313 7.48425781 1.17140625 8.65601562 1.1953125 9.86328125 C1 13 1 13 -1 16 C-1.97551509 13.07345473 -2.16478088 11.05345004 -2.1875 8 C-2.20167969 7.13375 -2.21585937 6.2675 -2.23046875 5.375 C-2 3 -2 3 0 0 Z " fill="#196AEE" transform="translate(130,61)"/>
<path d="M0 0 C0.99 0.33 1.98 0.66 3 1 C4.97930994 6.10453617 5.44686327 10.5482681 5 16 C3.48046875 18.23828125 3.48046875 18.23828125 2 20 C2.02320313 19.2265625 2.04640625 18.453125 2.0703125 17.65625 C2.17928906 11.36674562 1.85126093 6.01659801 0 0 Z " fill="#E2FBFF" transform="translate(166,112)"/>
<path d="M0 0 C3.08859947 1.35335595 5.007964 2.80886249 7.1875 5.375 C7.95126953 6.25285156 7.95126953 6.25285156 8.73046875 7.1484375 C10.07559273 9.11024909 10.57514402 10.676089 11 13 C10.34 13 9.68 13 9 13 C8.5978125 12.1028125 8.5978125 12.1028125 8.1875 11.1875 C6.16385338 7.45972991 3.84099588 5.72182574 0 4 C0 2.68 0 1.36 0 0 Z " fill="#3BADE5" transform="translate(74,61)"/>
<path d="M0 0 C0.33 0 0.66 0 1 0 C1.33 2.97 1.66 5.94 2 9 C6.455 8.505 6.455 8.505 11 8 C11 8.66 11 9.32 11 10 C9.02 10.33 7.04 10.66 5 11 C5 12.32 5 13.64 5 15 C1.125 13.25 1.125 13.25 0 11 C-0.07033769 9.12620395 -0.0843022 7.24998898 -0.0625 5.375 C-0.05347656 4.37210937 -0.04445313 3.36921875 -0.03515625 2.3359375 C-0.02355469 1.56507812 -0.01195313 0.79421875 0 0 Z " fill="#D9F7FD" transform="translate(118,115)"/>
<path d="M0 0 C0.33 0 0.66 0 1 0 C1.03738281 0.79664062 1.07476562 1.59328125 1.11328125 2.4140625 C1.47956941 8.31776574 1.78602794 12.96943503 5 18 C3.02 17.34 1.04 16.68 -1 16 C-0.67 10.72 -0.34 5.44 0 0 Z " fill="#DDF8FE" transform="translate(139,119)"/>
<path d="M0 0 C0.33 0.66 0.66 1.32 1 2 C-1.47012202 7.33546355 -3.70441676 10.12196563 -9 13 C-9.66 13 -10.32 13 -11 13 C-11 12.34 -11 11.68 -11 11 C-8.4385343 8.70351351 -7.52032428 8 -4 8 C-3.566875 6.8553125 -3.566875 6.8553125 -3.125 5.6875 C-2 3 -2 3 0 0 Z " fill="#1D87EF" transform="translate(139,80)"/>
<path d="M0 0 C-1.8125 2 -1.8125 2 -4 4 C-4.99 4 -5.98 4 -7 4 C-7.33 5.32 -7.66 6.64 -8 8 C-8 7.01 -8 6.02 -8 5 C-8.99 4.67 -9.98 4.34 -11 4 C-11 3.34 -11 2.68 -11 2 C-9.54494642 1.47007308 -8.08581873 0.9513211 -6.625 0.4375 C-5.81289062 0.14746094 -5.00078125 -0.14257812 -4.1640625 -0.44140625 C-2 -1 -2 -1 0 0 Z " fill="#E3F0FA" transform="translate(164,139)"/>
<path d="M0 0 C0.49628906 0.38671875 0.99257812 0.7734375 1.50390625 1.171875 C5.84883147 4.50270951 10.18629161 7.39257462 15 10 C12 11 12 11 9.58984375 10.14453125 C8.27693359 9.48517578 8.27693359 9.48517578 6.9375 8.8125 C6.05964844 8.38582031 5.18179688 7.95914063 4.27734375 7.51953125 C1.78979754 5.85974484 0.98827225 4.78614606 0 2 C0 1.34 0 0.68 0 0 Z " fill="#3BAAE0" transform="translate(90,84)"/>
<path d="M0 0 C3.125 0.375 3.125 0.375 6 1 C5.360625 1.433125 4.72125 1.86625 4.0625 2.3125 C1.73253997 3.91239177 1.73253997 3.91239177 1 7 C-1.0625 8.1875 -1.0625 8.1875 -3 9 C-2.25 2.25 -2.25 2.25 0 0 Z " fill="#286CEA" transform="translate(38,61)"/>
<path d="M0 0 C3.125 2 3.125 2 5 4 C4.01 4.33 3.02 4.66 2 5 C2 4.34 2 3.68 2 3 C1.01 3.33 0.02 3.66 -1 4 C-1.66 3.34 -2.32 2.68 -3 2 C-5.66949409 1.75684344 -5.66949409 1.75684344 -8.625 1.875 C-9.62789062 1.89304687 -10.63078125 1.91109375 -11.6640625 1.9296875 C-12.82035156 1.96449219 -12.82035156 1.96449219 -14 2 C-9.46502141 -0.61834792 -5.12304766 -0.7117643 0 0 Z " fill="#489CE5" transform="translate(160,108)"/>
<path d="M0 0 C3 1 3 1 4 3 C4.09499503 4.49756871 4.12987198 5.99942932 4.125 7.5 C4.12757813 8.2940625 4.13015625 9.088125 4.1328125 9.90625 C4 12 4 12 3 14 C2.01 13.67 1.02 13.34 0 13 C0.33 12.34 0.66 11.68 1 11 C1.21377721 5.39296787 1.21377721 5.39296787 0 0 Z " fill="#3898DE" transform="translate(159,117)"/>
<path d="M0 0 C1.65 0 3.3 0 5 0 C4.67 1.65 4.34 3.3 4 5 C2.35 4.67 0.7 4.34 -1 4 C-0.67 2.68 -0.34 1.36 0 0 Z " fill="#FCFDFD" transform="translate(123,125)"/>
<path d="M0 0 C0.33 0 0.66 0 1 0 C1 2.64 1 5.28 1 8 C0.34 7.34 -0.32 6.68 -1 6 C-1.99 7.485 -1.99 7.485 -3 9 C-3.66 9 -4.32 9 -5 9 C-5.33 10.32 -5.66 11.64 -6 13 C-6.3125 10.3125 -6.3125 10.3125 -6 7 C-3.5625 4.25 -3.5625 4.25 -1 2 C-0.67 1.34 -0.34 0.68 0 0 Z " fill="#1F69D8" transform="translate(136,115)"/>
<path d="M0 0 C1.0725 0.309375 2.145 0.61875 3.25 0.9375 C8.75793783 2.33429718 14.34559961 2.64188798 20 3 C20 3.33 20 3.66 20 4 C6.3667426 4.3690205 6.3667426 4.3690205 0 2 C0 1.34 0 0.68 0 0 Z " fill="#BDF0FD" transform="translate(80,100)"/>
<path d="M0 0 C2.97 0.33 5.94 0.66 9 1 C7.68 1.33 6.36 1.66 5 2 C5.33 2.99 5.66 3.98 6 5 C5.01 5.33 4.02 5.66 3 6 C3 5.34 3 4.68 3 4 C2.34 4 1.68 4 1 4 C0.67 2.68 0.34 1.36 0 0 Z " fill="#B7C8E5" transform="translate(148,139)"/>
<path d="M0 0 C1.32 0 2.64 0 4 0 C4 0.66 4 1.32 4 2 C4.99 2.33 5.98 2.66 7 3 C6 4 6 4 3.71484375 4.09765625 C2.34005859 4.08025391 2.34005859 4.08025391 0.9375 4.0625 C0.01839844 4.05347656 -0.90070313 4.04445312 -1.84765625 4.03515625 C-2.55792969 4.02355469 -3.26820313 4.01195312 -4 4 C-4 3.67 -4 3.34 -4 3 C-2.35 3 -0.7 3 1 3 C0.67 2.01 0.34 1.02 0 0 Z " fill="#326DE3" transform="translate(154,136)"/>
<path d="M0 0 C0.99 0 1.98 0 3 0 C3.33 0.99 3.66 1.98 4 3 C2.68 4.32 1.36 5.64 0 7 C-0.66 5.68 -1.32 4.36 -2 3 C-1.34 2.01 -0.68 1.02 0 0 Z " fill="#2694F4" transform="translate(163,128)"/>
<path d="M0 0 C0.99 0.99 1.98 1.98 3 3 C2.01 4.485 2.01 4.485 1 6 C-0.65 5.67 -2.3 5.34 -4 5 C-2.68 3.35 -1.36 1.7 0 0 Z " fill="#21AEF3" transform="translate(131,114)"/>
<path d="M0 0 C0.99 1.32 1.98 2.64 3 4 C2.34 5.32 1.68 6.64 1 8 C1 7.01 1 6.02 1 5 C-1.31 5.66 -3.62 6.32 -6 7 C-5 5 -5 5 -2 4 C-0.79117904 1.99983534 -0.79117904 1.99983534 0 0 Z " fill="#CCEFFD" transform="translate(126,106)"/>
<path d="M0 0 C2.97 0.495 2.97 0.495 6 1 C6 1.66 6 2.32 6 3 C6.763125 3.12375 7.52625 3.2475 8.3125 3.375 C11 4 11 4 14 6 C8.65155992 5.46515599 4.64203897 3.53309233 0 1 C0 0.67 0 0.34 0 0 Z " fill="#41ACDF" transform="translate(74,96)"/>
<path d="M0 0 C1.32 1.32 2.64 2.64 4 4 C2.515 6.475 2.515 6.475 1 9 C0.34 8.67 -0.32 8.34 -1 8 C-1.04241723 5.66705225 -1.04092937 3.33297433 -1 1 C-0.67 0.67 -0.34 0.34 0 0 Z " fill="#1E87EE" transform="translate(123,81)"/>
<path d="M0 0 C1.9375 0.3125 1.9375 0.3125 4 1 C4.33 1.99 4.66 2.98 5 4 C5.66 4 6.32 4 7 4 C9 7 9 7 8.625 9.1875 C8.41875 9.785625 8.2125 10.38375 8 11 C4 5.25 4 5.25 4 3 C2.68 2.34 1.36 1.68 0 1 C0 0.67 0 0.34 0 0 Z " fill="#1A7AEA" transform="translate(51,68)"/>
<path d="M0 0 C2.97 0.495 2.97 0.495 6 1 C4.68 2.32 3.36 3.64 2 5 C1.01 4.34 0.02 3.68 -1 3 C-0.67 2.01 -0.34 1.02 0 0 Z " fill="#319BEA" transform="translate(57,136)"/>
<path d="M0 0 C3.31477541 2.13856478 4.09433495 3.26413167 5 7 C6.97901574 9.22977996 6.97901574 9.22977996 9 11 C5.36603447 9.99056513 4.06608233 9.08394242 1.6875 6.0625 C0 3 0 3 0 0 Z " fill="#3F9ADD" transform="translate(109,129)"/>
<path d="M0 0 C1.98 0 3.96 0 6 0 C6 2.64 6 5.28 6 8 C5.34 8 4.68 8 4 8 C2.68 5.36 1.36 2.72 0 0 Z " fill="#299EF6" transform="translate(33,128)"/>
<path d="M0 0 C1 2 1 2 0.25 5.0625 C-0.1625 6.031875 -0.575 7.00125 -1 8 C-1.99 8.33 -2.98 8.66 -4 9 C-3.38461538 3.46153846 -3.38461538 3.46153846 -1.4375 1.125 C-0.963125 0.75375 -0.48875 0.3825 0 0 Z " fill="#3799DE" transform="translate(145,110)"/>
<path d="M0 0 C1.32 0 2.64 0 4 0 C4 1.65 4 3.3 4 5 C2.68 5 1.36 5 0 5 C0 3.35 0 1.7 0 0 Z " fill="#5F7597" transform="translate(157,143)"/>
<path d="M0 0 C0.66 0 1.32 0 2 0 C2 0.66 2 1.32 2 2 C2.99 1.67 3.98 1.34 5 1 C5 2.32 5 3.64 5 5 C3.35 5 1.7 5 0 5 C0 3.35 0 1.7 0 0 Z " fill="#4E658F" transform="translate(149,143)"/>
<path d="M0 0 C0.495 0.515625 0.99 1.03125 1.5 1.5625 C-0.15 1.8925 -1.8 2.2225 -3.5 2.5625 C-3.5 1.9025 -3.5 1.2425 -3.5 0.5625 C-5.81 0.5625 -8.12 0.5625 -10.5 0.5625 C-10.5 0.2325 -10.5 -0.0975 -10.5 -0.4375 C-3.11538462 -1.79134615 -3.11538462 -1.79134615 0 0 Z " fill="#227BF0" transform="translate(161.5,135.4375)"/>
<path d="M0 0 C1.65 0 3.3 0 5 0 C5 0.66 5 1.32 5 2 C5.66 2.33 6.32 2.66 7 3 C2.25 4.125 2.25 4.125 0 3 C0 2.01 0 1.02 0 0 Z " fill="#27AFF5" transform="translate(143,130)"/>
<path d="M0 0 C0.89674777 2.51089376 1.13172674 3.64535109 0.1875 6.1875 C-1 8 -1 8 -3 9 C-2.5020163 5.26512223 -2.12508244 3.18762365 0 0 Z " fill="#4478DC" transform="translate(35,64)"/>
<path d="M0 0 C1.98 0 3.96 0 6 0 C6 0.66 6 1.32 6 2 C7.32 2.33 8.64 2.66 10 3 C9.67 3.66 9.34 4.32 9 5 C4.545 3.02 4.545 3.02 0 1 C0 0.67 0 0.34 0 0 Z " fill="#2CA2FB" transform="translate(42,61)"/>
<path d="M0 0 C5.41538462 -0.36923077 5.41538462 -0.36923077 8.375 1.5 C8.91125 1.995 9.4475 2.49 10 3 C8 4 8 4 6.0546875 3.44140625 C5.33539063 3.15136719 4.61609375 2.86132812 3.875 2.5625 C3.15054688 2.27503906 2.42609375 1.98757812 1.6796875 1.69140625 C0.84824219 1.34916016 0.84824219 1.34916016 0 1 C0 0.67 0 0.34 0 0 Z " fill="#2373F3" transform="translate(146,110)"/>
<path d="M0 0 C1.98 0 3.96 0 6 0 C6.33 1.32 6.66 2.64 7 4 C4.69 3.01 2.38 2.02 0 1 C0 0.67 0 0.34 0 0 Z " fill="#1B63EB" transform="translate(151,109)"/>
</svg>
